<svg width="58" height="64" fill="none" xmlns="http://www.w3.org/2000/svg">
  <path d="M41.899 15.513L6.287 24.589a6.125 6.125 0 00-4.423 7.448l.703 2.755 47.482-12.101-.702-2.756a6.125 6.125 0 00-7.448-4.422z" fill="#009FFF"/>
  <circle cx="19.852" cy="34.5" r="7.5" fill="#FFAA5A"/>
  <circle cx="32.852" cy="19.5" r="7.5" fill="#FFAA5A"/>
  <circle cx="18.852" cy="7.5" r="7.5" fill="#FFAA5A"/>
  <path d="M8.512 57.423a6.125 6.125 0 007.447 4.423l35.612-9.076a6.125 6.125 0 004.423-7.448L51.834 29 4.352 41.101l4.16 16.322zm4.942-9.837a3.28 3.28 0 012.37-3.99l5.086-1.297a3.282 3.282 0 013.99 2.37l.54 2.119a3.282 3.282 0 01-2.369 3.99l-5.087 1.297a3.281 3.281 0 01-3.99-2.37l-.54-2.12z" fill="#009FFF"/>
</svg>
